<?xml version="1.0" standalone="no"?><!DOCTYPE svg PUBLIC "-//W3C//DTD SVG 1.1//EN" "http://www.w3.org/Graphics/SVG/1.1/DTD/svg11.dtd"><svg t="1586503774813" class="icon" viewBox="0 0 1024 1024" version="1.1" xmlns="http://www.w3.org/2000/svg" p-id="1835" xmlns:xlink="http://www.w3.org/1999/xlink" width="200" height="200"><defs><style type="text/css"></style></defs><path d="M512 1024C229.229714 1024 0 794.770286 0 512S229.229714 0 512 0s512 229.229714 512 512-229.229714 512-512 512z m-167.140571-618.199771c36.156343 0 65.468343-29.057829 65.468342-65.466515 0-36.156343-29.059657-65.468343-65.468342-65.468343-36.156343 0-65.466514 29.059657-65.466515 65.468343 0 36.156343 29.057829 65.466514 65.466515 65.466515z m403.368228 171.925942c-1.537829 1.660343-5.723429 5.621029-12.525714 11.139658-12.013714 9.746286-26.605714 19.6224-43.752229 28.911542-49.724343 26.944-109.5808 43.189029-179.949714 43.189029s-130.225371-16.245029-179.949714-43.189029c-17.144686-9.289143-31.736686-19.163429-43.7504-28.911542-6.802286-5.518629-10.989714-9.479314-12.527543-11.139658l-26.9568-29.114514-58.2272 53.915429 26.9568 29.112685c13.888 14.999771 39.3984 35.697371 76.699428 55.908572 60.960914 33.031314 133.699657 52.772571 217.755429 52.772571 84.055771 0 156.794514-19.741257 217.755429-52.772571 37.302857-20.2112 62.811429-40.9088 76.699428-55.908572l26.9568-29.112685-58.2272-53.915429-26.9568 29.114514z m-76.032-171.925942c36.158171 0 65.468343-29.057829 65.468343-65.466515 0-36.156343-29.057829-65.468343-65.466514-65.468343-36.158171 0-65.468343 29.059657-65.468343 65.468343 0 36.156343 29.059657 65.466514 65.468343 65.466515z" p-id="1836" fill="#515151"></path></svg>