<?xml version="1.0" standalone="no"?><!DOCTYPE svg PUBLIC "-//W3C//DTD SVG 1.1//EN" "http://www.w3.org/Graphics/SVG/1.1/DTD/svg11.dtd"><svg t="1586503792056" class="icon" viewBox="0 0 1024 1024" version="1.1" xmlns="http://www.w3.org/2000/svg" p-id="2174" xmlns:xlink="http://www.w3.org/1999/xlink" width="200" height="200"><defs><style type="text/css"></style></defs><path d="M512 0c-282.752 0-512 229.248-512 512s229.248 512 512 512 512-229.248 512-512-229.248-512-512-512zM704 256c35.328 0 64 43.008 64 96s-28.672 96-64 96-64-43.008-64-96 28.672-96 64-96zM320 256c35.328 0 64 43.008 64 96s-28.672 96-64 96-64-43.008-64-96 28.672-96 64-96zM512 896c-166.848 0-305.408-139.904-320-318.272 93.76 54.144 204.032 85.056 320 85.056 115.968 0 226.24-30.784 320-84.928-14.592 178.432-153.152 318.144-320 318.144z" p-id="2175" fill="#008000"></path></svg>